solid 8S2-M
facet normal 0 0 -1
  outer loop
    vertex -71.4565872529449 75 85.03937
    vertex -66.2339056347977 76.0388559647359 85.03937
    vertex -66.1315872529449 75 85.03937
  endloop
endfacet
facet normal 0 0 -1
  outer loop
    vertex -71.4565872529449 75 85.03937
    vertex -66.5369287423223 77.0377892773441 85.03937
    vertex -66.2339056347977 76.0388559647359 85.03937
  endloop
endfacet
facet normal 0 0 -1
  outer loop
    vertex -71.4565872529449 75 85.03937
    vertex -67.0290115674338 77.9584114908294 85.03937
    vertex -66.5369287423223 77.0377892773441 85.03937
  endloop
endfacet
facet normal 0 0 -1
  outer loop
    vertex -71.4565872529449 75 85.03937
    vertex -67.6912436431265 78.7653436098184 85.03937
    vertex -67.0290115674338 77.9584114908294 85.03937
  endloop
endfacet
facet normal 0 0 -1
  outer loop
    vertex -71.4565872529449 75 85.03937
    vertex -68.4981757621155 79.4275756855111 85.03937
    vertex -67.6912436431265 78.7653436098184 85.03937
  endloop
endfacet
facet normal 0 0 -1
  outer loop
    vertex -71.4565872529449 75 85.03937
    vertex -69.4187979756008 79.9196585106226 85.03937
    vertex -68.4981757621155 79.4275756855111 85.03937
  endloop
endfacet
facet normal 0 0 -1
  outer loop
    vertex -71.4565872529449 75 85.03937
    vertex -70.417731288209 80.2226816181472 85.03937
    vertex -69.4187979756008 79.9196585106226 85.03937
  endloop
endfacet
facet normal 0 0 -1
  outer loop
    vertex -71.4565872529449 75 85.03937
    vertex -71.4565872529449 80.325 85.03937
    vertex -70.417731288209 80.2226816181472 85.03937
  endloop
endfacet
facet normal 0 0 -1
  outer loop
    vertex -71.4565872529449 75 85.03937
    vertex -72.4954432176808 80.2226816181472 85.03937
    vertex -71.4565872529449 80.325 85.03937
  endloop
endfacet
facet normal 0 0 -1
  outer loop
    vertex -71.4565872529449 75 85.03937
    vertex -73.494376530289 79.9196585106226 85.03937
    vertex -72.4954432176808 80.2226816181472 85.03937
  endloop
endfacet
facet normal 0 0 -1
  outer loop
    vertex -71.4565872529449 75 85.03937
    vertex -74.4149987437743 79.4275756855111 85.03937
    vertex -73.494376530289 79.9196585106226 85.03937
  endloop
endfacet
facet normal 0 0 -1
  outer loop
    vertex -71.4565872529449 75 85.03937
    vertex -75.2219308627633 78.7653436098184 85.03937
    vertex -74.4149987437743 79.4275756855111 85.03937
  endloop
endfacet
facet normal 0 0 -1
  outer loop
    vertex -71.4565872529449 75 85.03937
    vertex -75.884162938456 77.9584114908294 85.03937
    vertex -75.2219308627633 78.7653436098184 85.03937
  endloop
endfacet
facet normal 0 0 -1
  outer loop
    vertex -71.4565872529449 75 85.03937
    vertex -76.3762457635675 77.0377892773441 85.03937
    vertex -75.884162938456 77.9584114908294 85.03937
  endloop
endfacet
facet normal 0 0 -1
  outer loop
    vertex -71.4565872529449 75 85.03937
    vertex -76.6792688710921 76.0388559647359 85.03937
    vertex -76.3762457635675 77.0377892773441 85.03937
  endloop
endfacet
facet normal 0 0 -1
  outer loop
    vertex -71.4565872529449 75 85.03937
    vertex -76.7815872529449 75 85.03937
    vertex -76.6792688710921 76.0388559647359 85.03937
  endloop
endfacet
facet normal 0 0 -1
  outer loop
    vertex -71.4565872529449 75 85.03937
    vertex -76.6792688710921 73.9611440352641 85.03937
    vertex -76.7815872529449 75 85.03937
  endloop
endfacet
facet normal 0 0 -1
  outer loop
    vertex -71.4565872529449 75 85.03937
    vertex -76.3762457635675 72.9622107226559 85.03937
    vertex -76.6792688710921 73.9611440352641 85.03937
  endloop
endfacet
facet normal 0 0 -1
  outer loop
    vertex -71.4565872529449 75 85.03937
    vertex -75.884162938456 72.0415885091706 85.03937
    vertex -76.3762457635675 72.9622107226559 85.03937
  endloop
endfacet
facet normal 0 0 -1
  outer loop
    vertex -71.4565872529449 75 85.03937
    vertex -75.2219308627633 71.2346563901816 85.03937
    vertex -75.884162938456 72.0415885091706 85.03937
  endloop
endfacet
facet normal 0 0 -1
  outer loop
    vertex -71.4565872529449 75 85.03937
    vertex -74.4149987437743 70.5724243144889 85.03937
    vertex -75.2219308627633 71.2346563901816 85.03937
  endloop
endfacet
facet normal 0 0 -1
  outer loop
    vertex -71.4565872529449 75 85.03937
    vertex -73.494376530289 70.0803414893774 85.03937
    vertex -74.4149987437743 70.5724243144889 85.03937
  endloop
endfacet
facet normal 0 0 -1
  outer loop
    vertex -71.4565872529449 75 85.03937
    vertex -72.4954432176808 69.7773183818528 85.03937
    vertex -73.494376530289 70.0803414893774 85.03937
  endloop
endfacet
facet normal 0 0 -1
  outer loop
    vertex -71.4565872529449 75 85.03937
    vertex -71.4565872529449 69.675 85.03937
    vertex -72.4954432176808 69.7773183818528 85.03937
  endloop
endfacet
facet normal 0 0 -1
  outer loop
    vertex -71.4565872529449 75 85.03937
    vertex -70.417731288209 69.7773183818528 85.03937
    vertex -71.4565872529449 69.675 85.03937
  endloop
endfacet
facet normal 0 0 -1
  outer loop
    vertex -71.4565872529449 75 85.03937
    vertex -69.4187979756008 70.0803414893774 85.03937
    vertex -70.417731288209 69.7773183818528 85.03937
  endloop
endfacet
facet normal 0 0 -1
  outer loop
    vertex -71.4565872529449 75 85.03937
    vertex -68.4981757621155 70.5724243144889 85.03937
    vertex -69.4187979756008 70.0803414893774 85.03937
  endloop
endfacet
facet normal 0 0 -1
  outer loop
    vertex -71.4565872529449 75 85.03937
    vertex -67.6912436431265 71.2346563901816 85.03937
    vertex -68.4981757621155 70.5724243144889 85.03937
  endloop
endfacet
facet normal 0 0 -1
  outer loop
    vertex -71.4565872529449 75 85.03937
    vertex -67.0290115674338 72.0415885091706 85.03937
    vertex -67.6912436431265 71.2346563901816 85.03937
  endloop
endfacet
facet normal 0 0 -1
  outer loop
    vertex -71.4565872529449 75 85.03937
    vertex -66.5369287423223 72.9622107226559 85.03937
    vertex -67.0290115674338 72.0415885091706 85.03937
  endloop
endfacet
facet normal 0 0 -1
  outer loop
    vertex -71.4565872529449 75 85.03937
    vertex -66.2339056347977 73.9611440352641 85.03937
    vertex -66.5369287423223 72.9622107226559 85.03937
  endloop
endfacet
facet normal 0 0 -1
  outer loop
    vertex -71.4565872529449 75 85.03937
    vertex -66.1315872529449 75 85.03937
    vertex -66.2339056347977 73.9611440352641 85.03937
  endloop
endfacet
facet normal 0 0 1
  outer loop
    vertex -71.4565872529449 75 85.13937
    vertex -66.1315872529449 75 85.13937
    vertex -66.2339056347977 76.0388559647359 85.13937
  endloop
endfacet
facet normal 0 0 1
  outer loop
    vertex -71.4565872529449 75 85.13937
    vertex -66.2339056347977 76.0388559647359 85.13937
    vertex -66.5369287423223 77.0377892773441 85.13937
  endloop
endfacet
facet normal 0 0 1
  outer loop
    vertex -71.4565872529449 75 85.13937
    vertex -66.5369287423223 77.0377892773441 85.13937
    vertex -67.0290115674338 77.9584114908294 85.13937
  endloop
endfacet
facet normal 0 0 1
  outer loop
    vertex -71.4565872529449 75 85.13937
    vertex -67.0290115674338 77.9584114908294 85.13937
    vertex -67.6912436431265 78.7653436098184 85.13937
  endloop
endfacet
facet normal 0 0 1
  outer loop
    vertex -71.4565872529449 75 85.13937
    vertex -67.6912436431265 78.7653436098184 85.13937
    vertex -68.4981757621155 79.4275756855111 85.13937
  endloop
endfacet
facet normal 0 0 1
  outer loop
    vertex -71.4565872529449 75 85.13937
    vertex -68.4981757621155 79.4275756855111 85.13937
    vertex -69.4187979756008 79.9196585106226 85.13937
  endloop
endfacet
facet normal 0 0 1
  outer loop
    vertex -71.4565872529449 75 85.13937
    vertex -69.4187979756008 79.9196585106226 85.13937
    vertex -70.417731288209 80.2226816181472 85.13937
  endloop
endfacet
facet normal 0 0 1
  outer loop
    vertex -71.4565872529449 75 85.13937
    vertex -70.417731288209 80.2226816181472 85.13937
    vertex -71.4565872529449 80.325 85.13937
  endloop
endfacet
facet normal 0 0 1
  outer loop
    vertex -71.4565872529449 75 85.13937
    vertex -71.4565872529449 80.325 85.13937
    vertex -72.4954432176808 80.2226816181472 85.13937
  endloop
endfacet
facet normal 0 0 1
  outer loop
    vertex -71.4565872529449 75 85.13937
    vertex -72.4954432176808 80.2226816181472 85.13937
    vertex -73.494376530289 79.9196585106226 85.13937
  endloop
endfacet
facet normal 0 0 1
  outer loop
    vertex -71.4565872529449 75 85.13937
    vertex -73.494376530289 79.9196585106226 85.13937
    vertex -74.4149987437743 79.4275756855111 85.13937
  endloop
endfacet
facet normal 0 0 1
  outer loop
    vertex -71.4565872529449 75 85.13937
    vertex -74.4149987437743 79.4275756855111 85.13937
    vertex -75.2219308627633 78.7653436098184 85.13937
  endloop
endfacet
facet normal 0 0 1
  outer loop
    vertex -71.4565872529449 75 85.13937
    vertex -75.2219308627633 78.7653436098184 85.13937
    vertex -75.884162938456 77.9584114908294 85.13937
  endloop
endfacet
facet normal 0 0 1
  outer loop
    vertex -71.4565872529449 75 85.13937
    vertex -75.884162938456 77.9584114908294 85.13937
    vertex -76.3762457635675 77.0377892773441 85.13937
  endloop
endfacet
facet normal 0 0 1
  outer loop
    vertex -71.4565872529449 75 85.13937
    vertex -76.3762457635675 77.0377892773441 85.13937
    vertex -76.6792688710921 76.0388559647359 85.13937
  endloop
endfacet
facet normal 0 0 1
  outer loop
    vertex -71.4565872529449 75 85.13937
    vertex -76.6792688710921 76.0388559647359 85.13937
    vertex -76.7815872529449 75 85.13937
  endloop
endfacet
facet normal 0 0 1
  outer loop
    vertex -71.4565872529449 75 85.13937
    vertex -76.7815872529449 75 85.13937
    vertex -76.6792688710921 73.9611440352641 85.13937
  endloop
endfacet
facet normal 0 0 1
  outer loop
    vertex -71.4565872529449 75 85.13937
    vertex -76.6792688710921 73.9611440352641 85.13937
    vertex -76.3762457635675 72.9622107226559 85.13937
  endloop
endfacet
facet normal 0 0 1
  outer loop
    vertex -71.4565872529449 75 85.13937
    vertex -76.3762457635675 72.9622107226559 85.13937
    vertex -75.884162938456 72.0415885091706 85.13937
  endloop
endfacet
facet normal 0 0 1
  outer loop
    vertex -71.4565872529449 75 85.13937
    vertex -75.884162938456 72.0415885091706 85.13937
    vertex -75.2219308627633 71.2346563901816 85.13937
  endloop
endfacet
facet normal 0 0 1
  outer loop
    vertex -71.4565872529449 75 85.13937
    vertex -75.2219308627633 71.2346563901816 85.13937
    vertex -74.4149987437743 70.5724243144889 85.13937
  endloop
endfacet
facet normal 0 0 1
  outer loop
    vertex -71.4565872529449 75 85.13937
    vertex -74.4149987437743 70.5724243144889 85.13937
    vertex -73.494376530289 70.0803414893774 85.13937
  endloop
endfacet
facet normal 0 0 1
  outer loop
    vertex -71.4565872529449 75 85.13937
    vertex -73.494376530289 70.0803414893774 85.13937
    vertex -72.4954432176808 69.7773183818528 85.13937
  endloop
endfacet
facet normal 0 0 1
  outer loop
    vertex -71.4565872529449 75 85.13937
    vertex -72.4954432176808 69.7773183818528 85.13937
    vertex -71.4565872529449 69.675 85.13937
  endloop
endfacet
facet normal 0 0 1
  outer loop
    vertex -71.4565872529449 75 85.13937
    vertex -71.4565872529449 69.675 85.13937
    vertex -70.417731288209 69.7773183818528 85.13937
  endloop
endfacet
facet normal 0 0 1
  outer loop
    vertex -71.4565872529449 75 85.13937
    vertex -70.417731288209 69.7773183818528 85.13937
    vertex -69.4187979756008 70.0803414893774 85.13937
  endloop
endfacet
facet normal 0 0 1
  outer loop
    vertex -71.4565872529449 75 85.13937
    vertex -69.4187979756008 70.0803414893774 85.13937
    vertex -68.4981757621155 70.5724243144889 85.13937
  endloop
endfacet
facet normal 0 0 1
  outer loop
    vertex -71.4565872529449 75 85.13937
    vertex -68.4981757621155 70.5724243144889 85.13937
    vertex -67.6912436431265 71.2346563901816 85.13937
  endloop
endfacet
facet normal 0 0 1
  outer loop
    vertex -71.4565872529449 75 85.13937
    vertex -67.6912436431265 71.2346563901816 85.13937
    vertex -67.0290115674338 72.0415885091706 85.13937
  endloop
endfacet
facet normal 0 0 1
  outer loop
    vertex -71.4565872529449 75 85.13937
    vertex -67.0290115674338 72.0415885091706 85.13937
    vertex -66.5369287423223 72.9622107226559 85.13937
  endloop
endfacet
facet normal 0 0 1
  outer loop
    vertex -71.4565872529449 75 85.13937
    vertex -66.5369287423223 72.9622107226559 85.13937
    vertex -66.2339056347977 73.9611440352641 85.13937
  endloop
endfacet
facet normal 0 0 1
  outer loop
    vertex -71.4565872529449 75 85.13937
    vertex -66.2339056347977 73.9611440352641 85.13937
    vertex -66.1315872529449 75 85.13937
  endloop
endfacet
facet normal .995184726672197 9.80171403295579E-02 0
  outer loop
    vertex -66.1315872529449 75 85.03937
    vertex -66.2339056347977 76.0388559647359 85.13937
    vertex -66.1315872529449 75 85.13937
  endloop
endfacet
facet normal .956940335732205 .290284677254475 0
  outer loop
    vertex -66.2339056347977 76.0388559647359 85.03937
    vertex -66.5369287423223 77.0377892773441 85.13937
    vertex -66.2339056347977 76.0388559647359 85.13937
  endloop
endfacet
facet normal .881921264348381 .471396736825949 0
  outer loop
    vertex -66.5369287423223 77.0377892773441 85.03937
    vertex -67.0290115674338 77.9584114908294 85.13937
    vertex -66.5369287423223 77.0377892773441 85.13937
  endloop
endfacet
facet normal .773010453362736 .634393284163646 0
  outer loop
    vertex -67.0290115674338 77.9584114908294 85.03937
    vertex -67.6912436431265 78.7653436098184 85.13937
    vertex -67.0290115674338 77.9584114908294 85.13937
  endloop
endfacet
facet normal .634393284163646 .773010453362736 0
  outer loop
    vertex -67.6912436431265 78.7653436098184 85.03937
    vertex -68.4981757621155 79.4275756855111 85.13937
    vertex -67.6912436431265 78.7653436098184 85.13937
  endloop
endfacet
facet normal .471396736825949 .881921264348381 0
  outer loop
    vertex -68.4981757621155 79.4275756855111 85.03937
    vertex -69.4187979756008 79.9196585106226 85.13937
    vertex -68.4981757621155 79.4275756855111 85.13937
  endloop
endfacet
facet normal .290284677254475 .956940335732205 0
  outer loop
    vertex -69.4187979756008 79.9196585106226 85.03937
    vertex -70.417731288209 80.2226816181472 85.13937
    vertex -69.4187979756008 79.9196585106226 85.13937
  endloop
endfacet
facet normal 9.80171403295579E-02 .995184726672197 0
  outer loop
    vertex -70.417731288209 80.2226816181472 85.03937
    vertex -71.4565872529449 80.325 85.13937
    vertex -70.417731288209 80.2226816181472 85.13937
  endloop
endfacet
facet normal -9.80171403295579E-02 .995184726672197 0
  outer loop
    vertex -71.4565872529449 80.325 85.03937
    vertex -72.4954432176808 80.2226816181472 85.13937
    vertex -71.4565872529449 80.325 85.13937
  endloop
endfacet
facet normal -.290284677254475 .956940335732205 0
  outer loop
    vertex -72.4954432176808 80.2226816181472 85.03937
    vertex -73.494376530289 79.9196585106226 85.13937
    vertex -72.4954432176808 80.2226816181472 85.13937
  endloop
endfacet
facet normal -.471396736825949 .881921264348381 0
  outer loop
    vertex -73.494376530289 79.9196585106226 85.03937
    vertex -74.4149987437743 79.4275756855111 85.13937
    vertex -73.494376530289 79.9196585106226 85.13937
  endloop
endfacet
facet normal -.634393284163646 .773010453362736 0
  outer loop
    vertex -74.4149987437743 79.4275756855111 85.03937
    vertex -75.2219308627633 78.7653436098184 85.13937
    vertex -74.4149987437743 79.4275756855111 85.13937
  endloop
endfacet
facet normal -.773010453362736 .634393284163646 0
  outer loop
    vertex -75.2219308627633 78.7653436098184 85.03937
    vertex -75.884162938456 77.9584114908294 85.13937
    vertex -75.2219308627633 78.7653436098184 85.13937
  endloop
endfacet
facet normal -.881921264348381 .471396736825949 0
  outer loop
    vertex -75.884162938456 77.9584114908294 85.03937
    vertex -76.3762457635675 77.0377892773441 85.13937
    vertex -75.884162938456 77.9584114908294 85.13937
  endloop
endfacet
facet normal -.956940335732205 .290284677254475 0
  outer loop
    vertex -76.3762457635675 77.0377892773441 85.03937
    vertex -76.6792688710921 76.0388559647359 85.13937
    vertex -76.3762457635675 77.0377892773441 85.13937
  endloop
endfacet
facet normal -.995184726672197 9.80171403295579E-02 0
  outer loop
    vertex -76.6792688710921 76.0388559647359 85.03937
    vertex -76.7815872529449 75 85.13937
    vertex -76.6792688710921 76.0388559647359 85.13937
  endloop
endfacet
facet normal -.995184726672197 -9.80171403295579E-02 0
  outer loop
    vertex -76.7815872529449 75 85.03937
    vertex -76.6792688710921 73.9611440352641 85.13937
    vertex -76.7815872529449 75 85.13937
  endloop
endfacet
facet normal -.956940335732205 -.290284677254475 0
  outer loop
    vertex -76.6792688710921 73.9611440352641 85.03937
    vertex -76.3762457635675 72.9622107226559 85.13937
    vertex -76.6792688710921 73.9611440352641 85.13937
  endloop
endfacet
facet normal -.881921264348381 -.471396736825949 0
  outer loop
    vertex -76.3762457635675 72.9622107226559 85.03937
    vertex -75.884162938456 72.0415885091706 85.13937
    vertex -76.3762457635675 72.9622107226559 85.13937
  endloop
endfacet
facet normal -.773010453362736 -.634393284163646 0
  outer loop
    vertex -75.884162938456 72.0415885091706 85.03937
    vertex -75.2219308627633 71.2346563901816 85.13937
    vertex -75.884162938456 72.0415885091706 85.13937
  endloop
endfacet
facet normal -.634393284163646 -.773010453362736 0
  outer loop
    vertex -75.2219308627633 71.2346563901816 85.03937
    vertex -74.4149987437743 70.5724243144889 85.13937
    vertex -75.2219308627633 71.2346563901816 85.13937
  endloop
endfacet
facet normal -.471396736825949 -.881921264348381 0
  outer loop
    vertex -74.4149987437743 70.5724243144889 85.03937
    vertex -73.494376530289 70.0803414893774 85.13937
    vertex -74.4149987437743 70.5724243144889 85.13937
  endloop
endfacet
facet normal -.290284677254475 -.956940335732205 0
  outer loop
    vertex -73.494376530289 70.0803414893774 85.03937
    vertex -72.4954432176808 69.7773183818528 85.13937
    vertex -73.494376530289 70.0803414893774 85.13937
  endloop
endfacet
facet normal -9.80171403295579E-02 -.995184726672197 0
  outer loop
    vertex -72.4954432176808 69.7773183818528 85.03937
    vertex -71.4565872529449 69.675 85.13937
    vertex -72.4954432176808 69.7773183818528 85.13937
  endloop
endfacet
facet normal 9.80171403295579E-02 -.995184726672197 0
  outer loop
    vertex -71.4565872529449 69.675 85.03937
    vertex -70.417731288209 69.7773183818528 85.13937
    vertex -71.4565872529449 69.675 85.13937
  endloop
endfacet
facet normal .290284677254475 -.956940335732205 0
  outer loop
    vertex -70.417731288209 69.7773183818528 85.03937
    vertex -69.4187979756008 70.0803414893774 85.13937
    vertex -70.417731288209 69.7773183818528 85.13937
  endloop
endfacet
facet normal .471396736825949 -.881921264348381 0
  outer loop
    vertex -69.4187979756008 70.0803414893774 85.03937
    vertex -68.4981757621155 70.5724243144889 85.13937
    vertex -69.4187979756008 70.0803414893774 85.13937
  endloop
endfacet
facet normal .634393284163646 -.773010453362736 0
  outer loop
    vertex -68.4981757621155 70.5724243144889 85.03937
    vertex -67.6912436431265 71.2346563901816 85.13937
    vertex -68.4981757621155 70.5724243144889 85.13937
  endloop
endfacet
facet normal .773010453362736 -.634393284163646 0
  outer loop
    vertex -67.6912436431265 71.2346563901816 85.03937
    vertex -67.0290115674338 72.0415885091706 85.13937
    vertex -67.6912436431265 71.2346563901816 85.13937
  endloop
endfacet
facet normal .881921264348381 -.471396736825949 0
  outer loop
    vertex -67.0290115674338 72.0415885091706 85.03937
    vertex -66.5369287423223 72.9622107226559 85.13937
    vertex -67.0290115674338 72.0415885091706 85.13937
  endloop
endfacet
facet normal .956940335732205 -.290284677254475 0
  outer loop
    vertex -66.5369287423223 72.9622107226559 85.03937
    vertex -66.2339056347977 73.9611440352641 85.13937
    vertex -66.5369287423223 72.9622107226559 85.13937
  endloop
endfacet
facet normal .995184726672197 -9.80171403295579E-02 0
  outer loop
    vertex -66.2339056347977 73.9611440352641 85.03937
    vertex -66.1315872529449 75 85.13937
    vertex -66.2339056347977 73.9611440352641 85.13937
  endloop
endfacet
facet normal .995184726672197 9.80171403295579E-02 0
  outer loop
    vertex -66.2339056347977 76.0388559647359 85.03937
    vertex -66.2339056347977 76.0388559647359 85.13937
    vertex -66.1315872529449 75 85.03937
  endloop
endfacet
facet normal .956940335732205 .290284677254475 0
  outer loop
    vertex -66.5369287423223 77.0377892773441 85.03937
    vertex -66.5369287423223 77.0377892773441 85.13937
    vertex -66.2339056347977 76.0388559647359 85.03937
  endloop
endfacet
facet normal .881921264348381 .471396736825949 0
  outer loop
    vertex -67.0290115674338 77.9584114908294 85.03937
    vertex -67.0290115674338 77.9584114908294 85.13937
    vertex -66.5369287423223 77.0377892773441 85.03937
  endloop
endfacet
facet normal .773010453362736 .634393284163646 0
  outer loop
    vertex -67.6912436431265 78.7653436098184 85.03937
    vertex -67.6912436431265 78.7653436098184 85.13937
    vertex -67.0290115674338 77.9584114908294 85.03937
  endloop
endfacet
facet normal .634393284163646 .773010453362736 0
  outer loop
    vertex -68.4981757621155 79.4275756855111 85.03937
    vertex -68.4981757621155 79.4275756855111 85.13937
    vertex -67.6912436431265 78.7653436098184 85.03937
  endloop
endfacet
facet normal .471396736825949 .881921264348381 0
  outer loop
    vertex -69.4187979756008 79.9196585106226 85.03937
    vertex -69.4187979756008 79.9196585106226 85.13937
    vertex -68.4981757621155 79.4275756855111 85.03937
  endloop
endfacet
facet normal .290284677254475 .956940335732205 0
  outer loop
    vertex -70.417731288209 80.2226816181472 85.03937
    vertex -70.417731288209 80.2226816181472 85.13937
    vertex -69.4187979756008 79.9196585106226 85.03937
  endloop
endfacet
facet normal 9.80171403295579E-02 .995184726672197 0
  outer loop
    vertex -71.4565872529449 80.325 85.03937
    vertex -71.4565872529449 80.325 85.13937
    vertex -70.417731288209 80.2226816181472 85.03937
  endloop
endfacet
facet normal -9.80171403295579E-02 .995184726672197 0
  outer loop
    vertex -72.4954432176808 80.2226816181472 85.03937
    vertex -72.4954432176808 80.2226816181472 85.13937
    vertex -71.4565872529449 80.325 85.03937
  endloop
endfacet
facet normal -.290284677254475 .956940335732205 0
  outer loop
    vertex -73.494376530289 79.9196585106226 85.03937
    vertex -73.494376530289 79.9196585106226 85.13937
    vertex -72.4954432176808 80.2226816181472 85.03937
  endloop
endfacet
facet normal -.471396736825949 .881921264348381 0
  outer loop
    vertex -74.4149987437743 79.4275756855111 85.03937
    vertex -74.4149987437743 79.4275756855111 85.13937
    vertex -73.494376530289 79.9196585106226 85.03937
  endloop
endfacet
facet normal -.634393284163646 .773010453362736 0
  outer loop
    vertex -75.2219308627633 78.7653436098184 85.03937
    vertex -75.2219308627633 78.7653436098184 85.13937
    vertex -74.4149987437743 79.4275756855111 85.03937
  endloop
endfacet
facet normal -.773010453362736 .634393284163646 0
  outer loop
    vertex -75.884162938456 77.9584114908294 85.03937
    vertex -75.884162938456 77.9584114908294 85.13937
    vertex -75.2219308627633 78.7653436098184 85.03937
  endloop
endfacet
facet normal -.881921264348381 .471396736825949 0
  outer loop
    vertex -76.3762457635675 77.0377892773441 85.03937
    vertex -76.3762457635675 77.0377892773441 85.13937
    vertex -75.884162938456 77.9584114908294 85.03937
  endloop
endfacet
facet normal -.956940335732205 .290284677254475 0
  outer loop
    vertex -76.6792688710921 76.0388559647359 85.03937
    vertex -76.6792688710921 76.0388559647359 85.13937
    vertex -76.3762457635675 77.0377892773441 85.03937
  endloop
endfacet
facet normal -.995184726672197 9.80171403295579E-02 0
  outer loop
    vertex -76.7815872529449 75 85.03937
    vertex -76.7815872529449 75 85.13937
    vertex -76.6792688710921 76.0388559647359 85.03937
  endloop
endfacet
facet normal -.995184726672197 -9.80171403295579E-02 0
  outer loop
    vertex -76.6792688710921 73.9611440352641 85.03937
    vertex -76.6792688710921 73.9611440352641 85.13937
    vertex -76.7815872529449 75 85.03937
  endloop
endfacet
facet normal -.956940335732205 -.290284677254475 0
  outer loop
    vertex -76.3762457635675 72.9622107226559 85.03937
    vertex -76.3762457635675 72.9622107226559 85.13937
    vertex -76.6792688710921 73.9611440352641 85.03937
  endloop
endfacet
facet normal -.881921264348381 -.471396736825949 0
  outer loop
    vertex -75.884162938456 72.0415885091706 85.03937
    vertex -75.884162938456 72.0415885091706 85.13937
    vertex -76.3762457635675 72.9622107226559 85.03937
  endloop
endfacet
facet normal -.773010453362736 -.634393284163646 0
  outer loop
    vertex -75.2219308627633 71.2346563901816 85.03937
    vertex -75.2219308627633 71.2346563901816 85.13937
    vertex -75.884162938456 72.0415885091706 85.03937
  endloop
endfacet
facet normal -.634393284163646 -.773010453362736 0
  outer loop
    vertex -74.4149987437743 70.5724243144889 85.03937
    vertex -74.4149987437743 70.5724243144889 85.13937
    vertex -75.2219308627633 71.2346563901816 85.03937
  endloop
endfacet
facet normal -.471396736825949 -.881921264348381 0
  outer loop
    vertex -73.494376530289 70.0803414893774 85.03937
    vertex -73.494376530289 70.0803414893774 85.13937
    vertex -74.4149987437743 70.5724243144889 85.03937
  endloop
endfacet
facet normal -.290284677254475 -.956940335732205 0
  outer loop
    vertex -72.4954432176808 69.7773183818528 85.03937
    vertex -72.4954432176808 69.7773183818528 85.13937
    vertex -73.494376530289 70.0803414893774 85.03937
  endloop
endfacet
facet normal -9.80171403295579E-02 -.995184726672197 0
  outer loop
    vertex -71.4565872529449 69.675 85.03937
    vertex -71.4565872529449 69.675 85.13937
    vertex -72.4954432176808 69.7773183818528 85.03937
  endloop
endfacet
facet normal 9.80171403295579E-02 -.995184726672197 0
  outer loop
    vertex -70.417731288209 69.7773183818528 85.03937
    vertex -70.417731288209 69.7773183818528 85.13937
    vertex -71.4565872529449 69.675 85.03937
  endloop
endfacet
facet normal .290284677254475 -.956940335732205 0
  outer loop
    vertex -69.4187979756008 70.0803414893774 85.03937
    vertex -69.4187979756008 70.0803414893774 85.13937
    vertex -70.417731288209 69.7773183818528 85.03937
  endloop
endfacet
facet normal .471396736825949 -.881921264348381 0
  outer loop
    vertex -68.4981757621155 70.5724243144889 85.03937
    vertex -68.4981757621155 70.5724243144889 85.13937
    vertex -69.4187979756008 70.0803414893774 85.03937
  endloop
endfacet
facet normal .634393284163646 -.773010453362736 0
  outer loop
    vertex -67.6912436431265 71.2346563901816 85.03937
    vertex -67.6912436431265 71.2346563901816 85.13937
    vertex -68.4981757621155 70.5724243144889 85.03937
  endloop
endfacet
facet normal .773010453362736 -.634393284163646 0
  outer loop
    vertex -67.0290115674338 72.0415885091706 85.03937
    vertex -67.0290115674338 72.0415885091706 85.13937
    vertex -67.6912436431265 71.2346563901816 85.03937
  endloop
endfacet
facet normal .881921264348381 -.471396736825949 0
  outer loop
    vertex -66.5369287423223 72.9622107226559 85.03937
    vertex -66.5369287423223 72.9622107226559 85.13937
    vertex -67.0290115674338 72.0415885091706 85.03937
  endloop
endfacet
facet normal .956940335732205 -.290284677254475 0
  outer loop
    vertex -66.2339056347977 73.9611440352641 85.03937
    vertex -66.2339056347977 73.9611440352641 85.13937
    vertex -66.5369287423223 72.9622107226559 85.03937
  endloop
endfacet
facet normal .995184726672197 -9.80171403295579E-02 0
  outer loop
    vertex -66.1315872529449 75 85.03937
    vertex -66.1315872529449 75 85.13937
    vertex -66.2339056347977 73.9611440352641 85.03937
  endloop
endfacet
facet normal 0 0 1
  outer loop
    vertex 93.1792055146856 102.752878442653 85.03937
    vertex 12 102.752878442653 85.03937
    vertex 93.1792055146856 -102.752878442653 85.03937
  endloop
endfacet
facet normal 0 0 1
  outer loop
    vertex 93.1792055146856 -102.752878442653 85.03937
    vertex 12 102.752878442653 85.03937
    vertex 0 90.7528784426528 85.03937
  endloop
endfacet
facet normal 0 0 1
  outer loop
    vertex 93.1792055146856 -102.752878442653 85.03937
    vertex 0 90.7528784426528 85.03937
    vertex -93.1792055146856 -102.752878442653 85.03937
  endloop
endfacet
facet normal 0 0 1
  outer loop
    vertex -93.1792055146856 -102.752878442653 85.03937
    vertex 0 90.7528784426528 85.03937
    vertex -12 102.752878442653 85.03937
  endloop
endfacet
facet normal 0 0 1
  outer loop
    vertex -93.1792055146856 -102.752878442653 85.03937
    vertex -12 102.752878442653 85.03937
    vertex -93.1792055146856 102.752878442653 85.03937
  endloop
endfacet
facet normal 0 0 -1
  outer loop
    vertex 103.752878442653 102.752878442653 10
    vertex 103.752878442653 -102.752878442653 10
    vertex -103.752878442653 -102.752878442653 10
  endloop
endfacet
facet normal 0 0 -1
  outer loop
    vertex 103.752878442653 102.752878442653 10
    vertex -103.752878442653 -102.752878442653 10
    vertex -103.752878442653 102.752878442653 10
  endloop
endfacet
facet normal .921118787038767 0 .389281620635025
  outer loop
    vertex 93.1792055146856 102.752878442653 85.03937
    vertex 106.5 -105.5 53.519685
    vertex 106.5 105.5 53.519685
  endloop
endfacet
facet normal 0 -.996223440096615 8.68265938642407E-02
  outer loop
    vertex 93.1792055146856 -102.752878442653 85.03937
    vertex -106.5 -105.5 53.519685
    vertex 106.5 -105.5 53.519685
  endloop
endfacet
facet normal -.921118787038767 0 .389281620635025
  outer loop
    vertex -93.1792055146856 -102.752878442653 85.03937
    vertex -106.5 105.5 53.519685
    vertex -106.5 -105.5 53.519685
  endloop
endfacet
facet normal 1 0 0
  outer loop
    vertex 106.5 105.5 53.519685
    vertex 106.5 -105.5 41.519685
    vertex 106.5 105.5 41.519685
  endloop
endfacet
facet normal 0 -1 0
  outer loop
    vertex 106.5 -105.5 53.519685
    vertex -106.5 -105.5 41.519685
    vertex 106.5 -105.5 41.519685
  endloop
endfacet
facet normal -1 0 0
  outer loop
    vertex -106.5 -105.5 53.519685
    vertex -106.5 105.5 41.519685
    vertex -106.5 -105.5 41.519685
  endloop
endfacet
facet normal .996223440096615 0 -8.68265938642407E-02
  outer loop
    vertex 106.5 105.5 41.519685
    vertex 103.752878442653 -102.752878442653 10
    vertex 103.752878442653 102.752878442653 10
  endloop
endfacet
facet normal 0 -.996223440096615 -8.68265938642407E-02
  outer loop
    vertex 106.5 -105.5 41.519685
    vertex -103.752878442653 -102.752878442653 10
    vertex 103.752878442653 -102.752878442653 10
  endloop
endfacet
facet normal -.996223440096615 0 -8.68265938642407E-02
  outer loop
    vertex -106.5 -105.5 41.519685
    vertex -103.752878442653 102.752878442653 10
    vertex -103.752878442653 -102.752878442653 10
  endloop
endfacet
facet normal .921118787038767 0 .389281620635025
  outer loop
    vertex 93.1792055146856 -102.752878442653 85.03937
    vertex 106.5 -105.5 53.519685
    vertex 93.1792055146856 102.752878442653 85.03937
  endloop
endfacet
facet normal 0 -.996223440096615 8.68265938642407E-02
  outer loop
    vertex -93.1792055146856 -102.752878442653 85.03937
    vertex -106.5 -105.5 53.519685
    vertex 93.1792055146856 -102.752878442653 85.03937
  endloop
endfacet
facet normal -.921118787038767 0 .389281620635025
  outer loop
    vertex -93.1792055146856 102.752878442653 85.03937
    vertex -106.5 105.5 53.519685
    vertex -93.1792055146856 -102.752878442653 85.03937
  endloop
endfacet
facet normal 1 0 0
  outer loop
    vertex 106.5 -105.5 53.519685
    vertex 106.5 -105.5 41.519685
    vertex 106.5 105.5 53.519685
  endloop
endfacet
facet normal 0 -1 0
  outer loop
    vertex -106.5 -105.5 53.519685
    vertex -106.5 -105.5 41.519685
    vertex 106.5 -105.5 53.519685
  endloop
endfacet
facet normal -1 0 0
  outer loop
    vertex -106.5 105.5 53.519685
    vertex -106.5 105.5 41.519685
    vertex -106.5 -105.5 53.519685
  endloop
endfacet
facet normal .996223440096615 0 -8.68265938642407E-02
  outer loop
    vertex 106.5 -105.5 41.519685
    vertex 103.752878442653 -102.752878442653 10
    vertex 106.5 105.5 41.519685
  endloop
endfacet
facet normal 0 -.996223440096615 -8.68265938642407E-02
  outer loop
    vertex -106.5 -105.5 41.519685
    vertex -103.752878442653 -102.752878442653 10
    vertex 106.5 -105.5 41.519685
  endloop
endfacet
facet normal -.996223440096615 0 -8.68265938642407E-02
  outer loop
    vertex -106.5 105.5 41.519685
    vertex -103.752878442653 102.752878442653 10
    vertex -106.5 -105.5 41.519685
  endloop
endfacet
facet normal 0 .996223440096615 8.68265938642407E-02
  outer loop
    vertex 93.1792055146856 102.752878442653 85.03937
    vertex 106.5 105.5 53.519685
    vertex 12 102.752878442653 85.03937
  endloop
endfacet
facet normal 1.10620389859736E-04 .99619469199659 8.71557422144363E-02
  outer loop
    vertex 106.5 105.5 53.519685
    vertex 12 103.409387861966 77.535433
    vertex 12 102.752878442653 85.03937
  endloop
endfacet
facet normal 0 .996232398834813 8.67237424920845E-02
  outer loop
    vertex 106.5 105.5 53.519685
    vertex -106.5 105.5 53.519685
    vertex 12 103.409387861966 77.535433
  endloop
endfacet
facet normal 0 .996232398834813 8.67237424920845E-02
  outer loop
    vertex -106.5 105.5 53.519685
    vertex -12 103.409387861966 77.535433
    vertex 12 103.409387861966 77.535433
  endloop
endfacet
facet normal -2.95052074321183E-05 .996222360995959 8.68389692538988E-02
  outer loop
    vertex -106.5 105.5 53.519685
    vertex -93.1792055146856 102.752878442653 85.03937
    vertex -12 103.409387861966 77.535433
  endloop
endfacet
facet normal 0 .996194698091742 .087155742747693
  outer loop
    vertex -93.1792055146856 102.752878442653 85.03937
    vertex -12 102.752878442653 85.03937
    vertex -12 103.409387861966 77.535433
  endloop
endfacet
facet normal -1 0 0
  outer loop
    vertex 12 103.409387861966 77.535433
    vertex 12 102.752878442653 77.535433
    vertex 12 102.752878442653 85.03937
  endloop
endfacet
facet normal -.707106781186553 .707106781186542 0
  outer loop
    vertex 12 102.752878442653 85.03937
    vertex 12 102.752878442653 77.535433
    vertex 0 90.7528784426528 77.535433
  endloop
endfacet
facet normal -.707106781186553 .707106781186542 0
  outer loop
    vertex 12 102.752878442653 85.03937
    vertex 0 90.7528784426528 77.535433
    vertex 0 90.7528784426528 85.03937
  endloop
endfacet
facet normal .707106781186553 .707106781186542 0
  outer loop
    vertex 0 90.7528784426528 85.03937
    vertex 0 90.7528784426528 77.535433
    vertex -12 102.752878442653 77.535433
  endloop
endfacet
facet normal .707106781186553 .707106781186542 0
  outer loop
    vertex 0 90.7528784426528 85.03937
    vertex -12 102.752878442653 77.535433
    vertex -12 102.752878442653 85.03937
  endloop
endfacet
facet normal 1 0 0
  outer loop
    vertex -12 102.752878442653 85.03937
    vertex -12 102.752878442653 77.535433
    vertex -12 103.409387861966 77.535433
  endloop
endfacet
facet normal .724365990992487 .686792195535816 6.00865313074878E-02
  outer loop
    vertex -12 103.409387861966 77.535433
    vertex -12 102.752878442653 85.03937
    vertex 0 90.7528784426528 77.535433
  endloop
endfacet
facet normal 0 0 1
  outer loop
    vertex -12 103.409387861966 77.535433
    vertex 0 90.7528784426528 77.535433
    vertex 12 103.409387861966 77.535433
  endloop
endfacet
facet normal 0 0 1
  outer loop
    vertex 12 103.409387861966 77.535433
    vertex 0 90.7528784426528 77.535433
    vertex 12 102.752878442653 77.535433
  endloop
endfacet
facet normal 0 .996223440096615 -8.68265938642407E-02
  outer loop
    vertex 106.5 105.5 41.519685
    vertex 103.752878442653 102.752878442653 10
    vertex -106.5 105.5 41.519685
  endloop
endfacet
facet normal 0 .996223440096615 -8.68265938642407E-02
  outer loop
    vertex 103.752878442653 102.752878442653 10
    vertex -103.752878442653 102.752878442653 10
    vertex -106.5 105.5 41.519685
  endloop
endfacet
facet normal 0 1 0
  outer loop
    vertex 106.5 105.5 53.519685
    vertex 106.5 105.5 41.519685
    vertex -106.5 105.5 53.519685
  endloop
endfacet
facet normal 0 1 0
  outer loop
    vertex -106.5 105.5 53.519685
    vertex 106.5 105.5 41.519685
    vertex -106.5 105.5 41.519685
  endloop
endfacet
facet normal -1 0 0
  outer loop
    vertex -162.5 84.5 10
    vertex -162.5 84.5 0
    vertex -162.5 65.5 0
  endloop
endfacet
facet normal -1 0 0
  outer loop
    vertex -162.5 84.5 10
    vertex -162.5 65.5 0
    vertex -162.5 65.5 10
  endloop
endfacet
facet normal 1 0 0
  outer loop
    vertex -106.5 65.5 52.519685
    vertex -106.5 65.5 42.519685
    vertex -106.5 84.5 42.519685
  endloop
endfacet
facet normal 1 0 0
  outer loop
    vertex -106.5 65.5 52.519685
    vertex -106.5 84.5 42.519685
    vertex -106.5 84.5 52.519685
  endloop
endfacet
facet normal 0 1 0
  outer loop
    vertex -106.5 84.5 42.519685
    vertex -115.938701543674 84.5 42.519685
    vertex -120.938701543674 84.5 52.519685
  endloop
endfacet
facet normal 0 1 0
  outer loop
    vertex -115.938701543674 84.5 42.519685
    vertex -131.45 84.5 0
    vertex -136.45 84.5 10
  endloop
endfacet
facet normal 0 1 0
  outer loop
    vertex -131.45 84.5 0
    vertex -162.5 84.5 0
    vertex -162.5 84.5 10
  endloop
endfacet
facet normal 0 1 0
  outer loop
    vertex -106.5 84.5 42.519685
    vertex -120.938701543674 84.5 52.519685
    vertex -106.5 84.5 52.519685
  endloop
endfacet
facet normal 0 1 0
  outer loop
    vertex -115.938701543674 84.5 42.519685
    vertex -136.45 84.5 10
    vertex -120.938701543674 84.5 52.519685
  endloop
endfacet
facet normal 0 1 0
  outer loop
    vertex -131.45 84.5 0
    vertex -162.5 84.5 10
    vertex -136.45 84.5 10
  endloop
endfacet
facet normal 0 -1 0
  outer loop
    vertex -106.5 65.5 42.519685
    vertex -120.938701543674 65.5 52.519685
    vertex -115.938701543674 65.5 42.519685
  endloop
endfacet
facet normal 0 -1 0
  outer loop
    vertex -115.938701543674 65.5 42.519685
    vertex -136.45 65.5 10
    vertex -131.45 65.5 0
  endloop
endfacet
facet normal 0 -1 0
  outer loop
    vertex -131.45 65.5 0
    vertex -162.5 65.5 10
    vertex -162.5 65.5 0
  endloop
endfacet
facet normal 0 -1 0
  outer loop
    vertex -106.5 65.5 42.519685
    vertex -106.5 65.5 52.519685
    vertex -120.938701543674 65.5 52.519685
  endloop
endfacet
facet normal 0 -1 0
  outer loop
    vertex -115.938701543674 65.5 42.519685
    vertex -120.938701543674 65.5 52.519685
    vertex -136.45 65.5 10
  endloop
endfacet
facet normal 0 -1 0
  outer loop
    vertex -131.45 65.5 0
    vertex -136.45 65.5 10
    vertex -162.5 65.5 10
  endloop
endfacet
facet normal 0 0 1
  outer loop
    vertex -106.5 84.5 52.519685
    vertex -120.938701543674 84.5 52.519685
    vertex -120.938701543674 65.5 52.519685
  endloop
endfacet
facet normal -.939441001977616 0 .342710670687817
  outer loop
    vertex -120.938701543674 84.5 52.519685
    vertex -136.45 84.5 10
    vertex -136.45 65.5 10
  endloop
endfacet
facet normal 0 0 1
  outer loop
    vertex -136.45 84.5 10
    vertex -162.5 84.5 10
    vertex -162.5 65.5 10
  endloop
endfacet
facet normal 0 0 1
  outer loop
    vertex -106.5 84.5 52.519685
    vertex -120.938701543674 65.5 52.519685
    vertex -106.5 65.5 52.519685
  endloop
endfacet
facet normal -.939441001977616 0 .342710670687817
  outer loop
    vertex -120.938701543674 84.5 52.519685
    vertex -136.45 65.5 10
    vertex -120.938701543674 65.5 52.519685
  endloop
endfacet
facet normal 0 0 1
  outer loop
    vertex -136.45 84.5 10
    vertex -162.5 65.5 10
    vertex -136.45 65.5 10
  endloop
endfacet
facet normal 0 0 -1
  outer loop
    vertex -106.5 84.5 42.519685
    vertex -115.938701543674 65.5 42.519685
    vertex -115.938701543674 84.5 42.519685
  endloop
endfacet
facet normal .939441001977616 0 -.342710670687817
  outer loop
    vertex -115.938701543674 84.5 42.519685
    vertex -131.45 65.5 0
    vertex -131.45 84.5 0
  endloop
endfacet
facet normal 0 0 -1
  outer loop
    vertex -131.45 84.5 0
    vertex -162.5 65.5 0
    vertex -162.5 84.5 0
  endloop
endfacet
facet normal 0 0 -1
  outer loop
    vertex -106.5 84.5 42.519685
    vertex -106.5 65.5 42.519685
    vertex -115.938701543674 65.5 42.519685
  endloop
endfacet
facet normal .939441001977616 0 -.342710670687817
  outer loop
    vertex -115.938701543674 84.5 42.519685
    vertex -115.938701543674 65.5 42.519685
    vertex -131.45 65.5 0
  endloop
endfacet
facet normal 0 0 -1
  outer loop
    vertex -131.45 84.5 0
    vertex -131.45 65.5 0
    vertex -162.5 65.5 0
  endloop
endfacet
facet normal -1 0 0
  outer loop
    vertex -162.5 34.5 10
    vertex -162.5 34.5 0
    vertex -162.5 15.5 0
  endloop
endfacet
facet normal -1 0 0
  outer loop
    vertex -162.5 34.5 10
    vertex -162.5 15.5 0
    vertex -162.5 15.5 10
  endloop
endfacet
facet normal 1 0 0
  outer loop
    vertex -106.5 15.5 52.519685
    vertex -106.5 15.5 42.519685
    vertex -106.5 34.5 42.519685
  endloop
endfacet
facet normal 1 0 0
  outer loop
    vertex -106.5 15.5 52.519685
    vertex -106.5 34.5 42.519685
    vertex -106.5 34.5 52.519685
  endloop
endfacet
facet normal 0 1 0
  outer loop
    vertex -106.5 34.5 42.519685
    vertex -115.938701543674 34.5 42.519685
    vertex -120.938701543674 34.5 52.519685
  endloop
endfacet
facet normal 0 1 0
  outer loop
    vertex -115.938701543674 34.5 42.519685
    vertex -131.45 34.5 0
    vertex -136.45 34.5 10
  endloop
endfacet
facet normal 0 1 0
  outer loop
    vertex -131.45 34.5 0
    vertex -162.5 34.5 0
    vertex -162.5 34.5 10
  endloop
endfacet
facet normal 0 1 0
  outer loop
    vertex -106.5 34.5 42.519685
    vertex -120.938701543674 34.5 52.519685
    vertex -106.5 34.5 52.519685
  endloop
endfacet
facet normal 0 1 0
  outer loop
    vertex -115.938701543674 34.5 42.519685
    vertex -136.45 34.5 10
    vertex -120.938701543674 34.5 52.519685
  endloop
endfacet
facet normal 0 1 0
  outer loop
    vertex -131.45 34.5 0
    vertex -162.5 34.5 10
    vertex -136.45 34.5 10
  endloop
endfacet
facet normal 0 -1 0
  outer loop
    vertex -106.5 15.5 42.519685
    vertex -120.938701543674 15.5 52.519685
    vertex -115.938701543674 15.5 42.519685
  endloop
endfacet
facet normal 0 -1 0
  outer loop
    vertex -115.938701543674 15.5 42.519685
    vertex -136.45 15.5 10
    vertex -131.45 15.5 0
  endloop
endfacet
facet normal 0 -1 0
  outer loop
    vertex -131.45 15.5 0
    vertex -162.5 15.5 10
    vertex -162.5 15.5 0
  endloop
endfacet
facet normal 0 -1 0
  outer loop
    vertex -106.5 15.5 42.519685
    vertex -106.5 15.5 52.519685
    vertex -120.938701543674 15.5 52.519685
  endloop
endfacet
facet normal 0 -1 0
  outer loop
    vertex -115.938701543674 15.5 42.519685
    vertex -120.938701543674 15.5 52.519685
    vertex -136.45 15.5 10
  endloop
endfacet
facet normal 0 -1 0
  outer loop
    vertex -131.45 15.5 0
    vertex -136.45 15.5 10
    vertex -162.5 15.5 10
  endloop
endfacet
facet normal 0 0 1
  outer loop
    vertex -106.5 34.5 52.519685
    vertex -120.938701543674 34.5 52.519685
    vertex -120.938701543674 15.5 52.519685
  endloop
endfacet
facet normal -.939441001977616 0 .342710670687817
  outer loop
    vertex -120.938701543674 34.5 52.519685
    vertex -136.45 34.5 10
    vertex -136.45 15.5 10
  endloop
endfacet
facet normal 0 0 1
  outer loop
    vertex -136.45 34.5 10
    vertex -162.5 34.5 10
    vertex -162.5 15.5 10
  endloop
endfacet
facet normal 0 0 1
  outer loop
    vertex -106.5 34.5 52.519685
    vertex -120.938701543674 15.5 52.519685
    vertex -106.5 15.5 52.519685
  endloop
endfacet
facet normal -.939441001977616 0 .342710670687817
  outer loop
    vertex -120.938701543674 34.5 52.519685
    vertex -136.45 15.5 10
    vertex -120.938701543674 15.5 52.519685
  endloop
endfacet
facet normal 0 0 1
  outer loop
    vertex -136.45 34.5 10
    vertex -162.5 15.5 10
    vertex -136.45 15.5 10
  endloop
endfacet
facet normal 0 0 -1
  outer loop
    vertex -106.5 34.5 42.519685
    vertex -115.938701543674 15.5 42.519685
    vertex -115.938701543674 34.5 42.519685
  endloop
endfacet
facet normal .939441001977616 0 -.342710670687817
  outer loop
    vertex -115.938701543674 34.5 42.519685
    vertex -131.45 15.5 0
    vertex -131.45 34.5 0
  endloop
endfacet
facet normal 0 0 -1
  outer loop
    vertex -131.45 34.5 0
    vertex -162.5 15.5 0
    vertex -162.5 34.5 0
  endloop
endfacet
facet normal 0 0 -1
  outer loop
    vertex -106.5 34.5 42.519685
    vertex -106.5 15.5 42.519685
    vertex -115.938701543674 15.5 42.519685
  endloop
endfacet
facet normal .939441001977616 0 -.342710670687817
  outer loop
    vertex -115.938701543674 34.5 42.519685
    vertex -115.938701543674 15.5 42.519685
    vertex -131.45 15.5 0
  endloop
endfacet
facet normal 0 0 -1
  outer loop
    vertex -131.45 34.5 0
    vertex -131.45 15.5 0
    vertex -162.5 15.5 0
  endloop
endfacet
facet normal -1 0 0
  outer loop
    vertex -162.5 -15.5 10
    vertex -162.5 -15.5 0
    vertex -162.5 -34.5 0
  endloop
endfacet
facet normal -1 0 0
  outer loop
    vertex -162.5 -15.5 10
    vertex -162.5 -34.5 0
    vertex -162.5 -34.5 10
  endloop
endfacet
facet normal 1 0 0
  outer loop
    vertex -106.5 -34.5 52.519685
    vertex -106.5 -34.5 42.519685
    vertex -106.5 -15.5 42.519685
  endloop
endfacet
facet normal 1 0 0
  outer loop
    vertex -106.5 -34.5 52.519685
    vertex -106.5 -15.5 42.519685
    vertex -106.5 -15.5 52.519685
  endloop
endfacet
facet normal 0 1 0
  outer loop
    vertex -106.5 -15.5 42.519685
    vertex -115.938701543674 -15.5 42.519685
    vertex -120.938701543674 -15.5 52.519685
  endloop
endfacet
facet normal 0 1 0
  outer loop
    vertex -115.938701543674 -15.5 42.519685
    vertex -131.45 -15.5 0
    vertex -136.45 -15.5 10
  endloop
endfacet
facet normal 0 1 0
  outer loop
    vertex -131.45 -15.5 0
    vertex -162.5 -15.5 0
    vertex -162.5 -15.5 10
  endloop
endfacet
facet normal 0 1 0
  outer loop
    vertex -106.5 -15.5 42.519685
    vertex -120.938701543674 -15.5 52.519685
    vertex -106.5 -15.5 52.519685
  endloop
endfacet
facet normal 0 1 0
  outer loop
    vertex -115.938701543674 -15.5 42.519685
    vertex -136.45 -15.5 10
    vertex -120.938701543674 -15.5 52.519685
  endloop
endfacet
facet normal 0 1 0
  outer loop
    vertex -131.45 -15.5 0
    vertex -162.5 -15.5 10
    vertex -136.45 -15.5 10
  endloop
endfacet
facet normal 0 -1 0
  outer loop
    vertex -106.5 -34.5 42.519685
    vertex -120.938701543674 -34.5 52.519685
    vertex -115.938701543674 -34.5 42.519685
  endloop
endfacet
facet normal 0 -1 0
  outer loop
    vertex -115.938701543674 -34.5 42.519685
    vertex -136.45 -34.5 10
    vertex -131.45 -34.5 0
  endloop
endfacet
facet normal 0 -1 0
  outer loop
    vertex -131.45 -34.5 0
    vertex -162.5 -34.5 10
    vertex -162.5 -34.5 0
  endloop
endfacet
facet normal 0 -1 0
  outer loop
    vertex -106.5 -34.5 42.519685
    vertex -106.5 -34.5 52.519685
    vertex -120.938701543674 -34.5 52.519685
  endloop
endfacet
facet normal 0 -1 0
  outer loop
    vertex -115.938701543674 -34.5 42.519685
    vertex -120.938701543674 -34.5 52.519685
    vertex -136.45 -34.5 10
  endloop
endfacet
facet normal 0 -1 0
  outer loop
    vertex -131.45 -34.5 0
    vertex -136.45 -34.5 10
    vertex -162.5 -34.5 10
  endloop
endfacet
facet normal 0 0 1
  outer loop
    vertex -106.5 -15.5 52.519685
    vertex -120.938701543674 -15.5 52.519685
    vertex -120.938701543674 -34.5 52.519685
  endloop
endfacet
facet normal -.939441001977616 0 .342710670687817
  outer loop
    vertex -120.938701543674 -15.5 52.519685
    vertex -136.45 -15.5 10
    vertex -136.45 -34.5 10
  endloop
endfacet
facet normal 0 0 1
  outer loop
    vertex -136.45 -15.5 10
    vertex -162.5 -15.5 10
    vertex -162.5 -34.5 10
  endloop
endfacet
facet normal 0 0 1
  outer loop
    vertex -106.5 -15.5 52.519685
    vertex -120.938701543674 -34.5 52.519685
    vertex -106.5 -34.5 52.519685
  endloop
endfacet
facet normal -.939441001977616 0 .342710670687817
  outer loop
    vertex -120.938701543674 -15.5 52.519685
    vertex -136.45 -34.5 10
    vertex -120.938701543674 -34.5 52.519685
  endloop
endfacet
facet normal 0 0 1
  outer loop
    vertex -136.45 -15.5 10
    vertex -162.5 -34.5 10
    vertex -136.45 -34.5 10
  endloop
endfacet
facet normal 0 0 -1
  outer loop
    vertex -106.5 -15.5 42.519685
    vertex -115.938701543674 -34.5 42.519685
    vertex -115.938701543674 -15.5 42.519685
  endloop
endfacet
facet normal .939441001977616 0 -.342710670687817
  outer loop
    vertex -115.938701543674 -15.5 42.519685
    vertex -131.45 -34.5 0
    vertex -131.45 -15.5 0
  endloop
endfacet
facet normal 0 0 -1
  outer loop
    vertex -131.45 -15.5 0
    vertex -162.5 -34.5 0
    vertex -162.5 -15.5 0
  endloop
endfacet
facet normal 0 0 -1
  outer loop
    vertex -106.5 -15.5 42.519685
    vertex -106.5 -34.5 42.519685
    vertex -115.938701543674 -34.5 42.519685
  endloop
endfacet
facet normal .939441001977616 0 -.342710670687817
  outer loop
    vertex -115.938701543674 -15.5 42.519685
    vertex -115.938701543674 -34.5 42.519685
    vertex -131.45 -34.5 0
  endloop
endfacet
facet normal 0 0 -1
  outer loop
    vertex -131.45 -15.5 0
    vertex -131.45 -34.5 0
    vertex -162.5 -34.5 0
  endloop
endfacet
facet normal -1 0 0
  outer loop
    vertex -162.5 -65.5 10
    vertex -162.5 -65.5 0
    vertex -162.5 -84.5 0
  endloop
endfacet
facet normal -1 0 0
  outer loop
    vertex -162.5 -65.5 10
    vertex -162.5 -84.5 0
    vertex -162.5 -84.5 10
  endloop
endfacet
facet normal 1 0 0
  outer loop
    vertex -106.5 -84.5 52.519685
    vertex -106.5 -84.5 42.519685
    vertex -106.5 -65.5 42.519685
  endloop
endfacet
facet normal 1 0 0
  outer loop
    vertex -106.5 -84.5 52.519685
    vertex -106.5 -65.5 42.519685
    vertex -106.5 -65.5 52.519685
  endloop
endfacet
facet normal 0 1 0
  outer loop
    vertex -106.5 -65.5 42.519685
    vertex -115.938701543674 -65.5 42.519685
    vertex -120.938701543674 -65.5 52.519685
  endloop
endfacet
facet normal 0 1 0
  outer loop
    vertex -115.938701543674 -65.5 42.519685
    vertex -131.45 -65.5 0
    vertex -136.45 -65.5 10
  endloop
endfacet
facet normal 0 1 0
  outer loop
    vertex -131.45 -65.5 0
    vertex -162.5 -65.5 0
    vertex -162.5 -65.5 10
  endloop
endfacet
facet normal 0 1 0
  outer loop
    vertex -106.5 -65.5 42.519685
    vertex -120.938701543674 -65.5 52.519685
    vertex -106.5 -65.5 52.519685
  endloop
endfacet
facet normal 0 1 0
  outer loop
    vertex -115.938701543674 -65.5 42.519685
    vertex -136.45 -65.5 10
    vertex -120.938701543674 -65.5 52.519685
  endloop
endfacet
facet normal 0 1 0
  outer loop
    vertex -131.45 -65.5 0
    vertex -162.5 -65.5 10
    vertex -136.45 -65.5 10
  endloop
endfacet
facet normal 0 -1 0
  outer loop
    vertex -106.5 -84.5 42.519685
    vertex -120.938701543674 -84.5 52.519685
    vertex -115.938701543674 -84.5 42.519685
  endloop
endfacet
facet normal 0 -1 0
  outer loop
    vertex -115.938701543674 -84.5 42.519685
    vertex -136.45 -84.5 10
    vertex -131.45 -84.5 0
  endloop
endfacet
facet normal 0 -1 0
  outer loop
    vertex -131.45 -84.5 0
    vertex -162.5 -84.5 10
    vertex -162.5 -84.5 0
  endloop
endfacet
facet normal 0 -1 0
  outer loop
    vertex -106.5 -84.5 42.519685
    vertex -106.5 -84.5 52.519685
    vertex -120.938701543674 -84.5 52.519685
  endloop
endfacet
facet normal 0 -1 0
  outer loop
    vertex -115.938701543674 -84.5 42.519685
    vertex -120.938701543674 -84.5 52.519685
    vertex -136.45 -84.5 10
  endloop
endfacet
facet normal 0 -1 0
  outer loop
    vertex -131.45 -84.5 0
    vertex -136.45 -84.5 10
    vertex -162.5 -84.5 10
  endloop
endfacet
facet normal 0 0 1
  outer loop
    vertex -106.5 -65.5 52.519685
    vertex -120.938701543674 -65.5 52.519685
    vertex -120.938701543674 -84.5 52.519685
  endloop
endfacet
facet normal -.939441001977616 0 .342710670687817
  outer loop
    vertex -120.938701543674 -65.5 52.519685
    vertex -136.45 -65.5 10
    vertex -136.45 -84.5 10
  endloop
endfacet
facet normal 0 0 1
  outer loop
    vertex -136.45 -65.5 10
    vertex -162.5 -65.5 10
    vertex -162.5 -84.5 10
  endloop
endfacet
facet normal 0 0 1
  outer loop
    vertex -106.5 -65.5 52.519685
    vertex -120.938701543674 -84.5 52.519685
    vertex -106.5 -84.5 52.519685
  endloop
endfacet
facet normal -.939441001977616 0 .342710670687817
  outer loop
    vertex -120.938701543674 -65.5 52.519685
    vertex -136.45 -84.5 10
    vertex -120.938701543674 -84.5 52.519685
  endloop
endfacet
facet normal 0 0 1
  outer loop
    vertex -136.45 -65.5 10
    vertex -162.5 -84.5 10
    vertex -136.45 -84.5 10
  endloop
endfacet
facet normal 0 0 -1
  outer loop
    vertex -106.5 -65.5 42.519685
    vertex -115.938701543674 -84.5 42.519685
    vertex -115.938701543674 -65.5 42.519685
  endloop
endfacet
facet normal .939441001977616 0 -.342710670687817
  outer loop
    vertex -115.938701543674 -65.5 42.519685
    vertex -131.45 -84.5 0
    vertex -131.45 -65.5 0
  endloop
endfacet
facet normal 0 0 -1
  outer loop
    vertex -131.45 -65.5 0
    vertex -162.5 -84.5 0
    vertex -162.5 -65.5 0
  endloop
endfacet
facet normal 0 0 -1
  outer loop
    vertex -106.5 -65.5 42.519685
    vertex -106.5 -84.5 42.519685
    vertex -115.938701543674 -84.5 42.519685
  endloop
endfacet
facet normal .939441001977616 0 -.342710670687817
  outer loop
    vertex -115.938701543674 -65.5 42.519685
    vertex -115.938701543674 -84.5 42.519685
    vertex -131.45 -84.5 0
  endloop
endfacet
facet normal 0 0 -1
  outer loop
    vertex -131.45 -65.5 0
    vertex -131.45 -84.5 0
    vertex -162.5 -84.5 0
  endloop
endfacet
facet normal 1 0 0
  outer loop
    vertex 162.5 -84.5 10
    vertex 162.5 -84.5 0
    vertex 162.5 -65.5 0
  endloop
endfacet
facet normal 1 0 0
  outer loop
    vertex 162.5 -84.5 10
    vertex 162.5 -65.5 0
    vertex 162.5 -65.5 10
  endloop
endfacet
facet normal -1 0 0
  outer loop
    vertex 106.5 -65.5 52.519685
    vertex 106.5 -65.5 42.519685
    vertex 106.5 -84.5 42.519685
  endloop
endfacet
facet normal -1 0 0
  outer loop
    vertex 106.5 -65.5 52.519685
    vertex 106.5 -84.5 42.519685
    vertex 106.5 -84.5 52.519685
  endloop
endfacet
facet normal 0 -1 0
  outer loop
    vertex 106.5 -84.5 42.519685
    vertex 115.938701543674 -84.5 42.519685
    vertex 120.938701543674 -84.5 52.519685
  endloop
endfacet
facet normal 0 -1 0
  outer loop
    vertex 115.938701543674 -84.5 42.519685
    vertex 131.45 -84.5 0
    vertex 136.45 -84.5 10
  endloop
endfacet
facet normal 0 -1 0
  outer loop
    vertex 131.45 -84.5 0
    vertex 162.5 -84.5 0
    vertex 162.5 -84.5 10
  endloop
endfacet
facet normal 0 -1 0
  outer loop
    vertex 106.5 -84.5 42.519685
    vertex 120.938701543674 -84.5 52.519685
    vertex 106.5 -84.5 52.519685
  endloop
endfacet
facet normal 0 -1 0
  outer loop
    vertex 115.938701543674 -84.5 42.519685
    vertex 136.45 -84.5 10
    vertex 120.938701543674 -84.5 52.519685
  endloop
endfacet
facet normal 0 -1 0
  outer loop
    vertex 131.45 -84.5 0
    vertex 162.5 -84.5 10
    vertex 136.45 -84.5 10
  endloop
endfacet
facet normal 0 1 0
  outer loop
    vertex 106.5 -65.5 42.519685
    vertex 120.938701543674 -65.5 52.519685
    vertex 115.938701543674 -65.5 42.519685
  endloop
endfacet
facet normal 0 1 0
  outer loop
    vertex 115.938701543674 -65.5 42.519685
    vertex 136.45 -65.5 10
    vertex 131.45 -65.5 0
  endloop
endfacet
facet normal 0 1 0
  outer loop
    vertex 131.45 -65.5 0
    vertex 162.5 -65.5 10
    vertex 162.5 -65.5 0
  endloop
endfacet
facet normal 0 1 0
  outer loop
    vertex 106.5 -65.5 42.519685
    vertex 106.5 -65.5 52.519685
    vertex 120.938701543674 -65.5 52.519685
  endloop
endfacet
facet normal 0 1 0
  outer loop
    vertex 115.938701543674 -65.5 42.519685
    vertex 120.938701543674 -65.5 52.519685
    vertex 136.45 -65.5 10
  endloop
endfacet
facet normal 0 1 0
  outer loop
    vertex 131.45 -65.5 0
    vertex 136.45 -65.5 10
    vertex 162.5 -65.5 10
  endloop
endfacet
facet normal 0 0 1
  outer loop
    vertex 106.5 -84.5 52.519685
    vertex 120.938701543674 -84.5 52.519685
    vertex 120.938701543674 -65.5 52.519685
  endloop
endfacet
facet normal .939441001977616 0 .342710670687817
  outer loop
    vertex 120.938701543674 -84.5 52.519685
    vertex 136.45 -84.5 10
    vertex 136.45 -65.5 10
  endloop
endfacet
facet normal 0 0 1
  outer loop
    vertex 136.45 -84.5 10
    vertex 162.5 -84.5 10
    vertex 162.5 -65.5 10
  endloop
endfacet
facet normal 0 0 1
  outer loop
    vertex 106.5 -84.5 52.519685
    vertex 120.938701543674 -65.5 52.519685
    vertex 106.5 -65.5 52.519685
  endloop
endfacet
facet normal .939441001977616 0 .342710670687817
  outer loop
    vertex 120.938701543674 -84.5 52.519685
    vertex 136.45 -65.5 10
    vertex 120.938701543674 -65.5 52.519685
  endloop
endfacet
facet normal 0 0 1
  outer loop
    vertex 136.45 -84.5 10
    vertex 162.5 -65.5 10
    vertex 136.45 -65.5 10
  endloop
endfacet
facet normal 0 0 -1
  outer loop
    vertex 106.5 -84.5 42.519685
    vertex 115.938701543674 -65.5 42.519685
    vertex 115.938701543674 -84.5 42.519685
  endloop
endfacet
facet normal -.939441001977616 0 -.342710670687817
  outer loop
    vertex 115.938701543674 -84.5 42.519685
    vertex 131.45 -65.5 0
    vertex 131.45 -84.5 0
  endloop
endfacet
facet normal 0 0 -1
  outer loop
    vertex 131.45 -84.5 0
    vertex 162.5 -65.5 0
    vertex 162.5 -84.5 0
  endloop
endfacet
facet normal 0 0 -1
  outer loop
    vertex 106.5 -84.5 42.519685
    vertex 106.5 -65.5 42.519685
    vertex 115.938701543674 -65.5 42.519685
  endloop
endfacet
facet normal -.939441001977616 0 -.342710670687817
  outer loop
    vertex 115.938701543674 -84.5 42.519685
    vertex 115.938701543674 -65.5 42.519685
    vertex 131.45 -65.5 0
  endloop
endfacet
facet normal 0 0 -1
  outer loop
    vertex 131.45 -84.5 0
    vertex 131.45 -65.5 0
    vertex 162.5 -65.5 0
  endloop
endfacet
facet normal 1 0 0
  outer loop
    vertex 162.5 -34.5 10
    vertex 162.5 -34.5 0
    vertex 162.5 -15.5 0
  endloop
endfacet
facet normal 1 0 0
  outer loop
    vertex 162.5 -34.5 10
    vertex 162.5 -15.5 0
    vertex 162.5 -15.5 10
  endloop
endfacet
facet normal -1 0 0
  outer loop
    vertex 106.5 -15.5 52.519685
    vertex 106.5 -15.5 42.519685
    vertex 106.5 -34.5 42.519685
  endloop
endfacet
facet normal -1 0 0
  outer loop
    vertex 106.5 -15.5 52.519685
    vertex 106.5 -34.5 42.519685
    vertex 106.5 -34.5 52.519685
  endloop
endfacet
facet normal 0 -1 0
  outer loop
    vertex 106.5 -34.5 42.519685
    vertex 115.938701543674 -34.5 42.519685
    vertex 120.938701543674 -34.5 52.519685
  endloop
endfacet
facet normal 0 -1 0
  outer loop
    vertex 115.938701543674 -34.5 42.519685
    vertex 131.45 -34.5 0
    vertex 136.45 -34.5 10
  endloop
endfacet
facet normal 0 -1 0
  outer loop
    vertex 131.45 -34.5 0
    vertex 162.5 -34.5 0
    vertex 162.5 -34.5 10
  endloop
endfacet
facet normal 0 -1 0
  outer loop
    vertex 106.5 -34.5 42.519685
    vertex 120.938701543674 -34.5 52.519685
    vertex 106.5 -34.5 52.519685
  endloop
endfacet
facet normal 0 -1 0
  outer loop
    vertex 115.938701543674 -34.5 42.519685
    vertex 136.45 -34.5 10
    vertex 120.938701543674 -34.5 52.519685
  endloop
endfacet
facet normal 0 -1 0
  outer loop
    vertex 131.45 -34.5 0
    vertex 162.5 -34.5 10
    vertex 136.45 -34.5 10
  endloop
endfacet
facet normal 0 1 0
  outer loop
    vertex 106.5 -15.5 42.519685
    vertex 120.938701543674 -15.5 52.519685
    vertex 115.938701543674 -15.5 42.519685
  endloop
endfacet
facet normal 0 1 0
  outer loop
    vertex 115.938701543674 -15.5 42.519685
    vertex 136.45 -15.5 10
    vertex 131.45 -15.5 0
  endloop
endfacet
facet normal 0 1 0
  outer loop
    vertex 131.45 -15.5 0
    vertex 162.5 -15.5 10
    vertex 162.5 -15.5 0
  endloop
endfacet
facet normal 0 1 0
  outer loop
    vertex 106.5 -15.5 42.519685
    vertex 106.5 -15.5 52.519685
    vertex 120.938701543674 -15.5 52.519685
  endloop
endfacet
facet normal 0 1 0
  outer loop
    vertex 115.938701543674 -15.5 42.519685
    vertex 120.938701543674 -15.5 52.519685
    vertex 136.45 -15.5 10
  endloop
endfacet
facet normal 0 1 0
  outer loop
    vertex 131.45 -15.5 0
    vertex 136.45 -15.5 10
    vertex 162.5 -15.5 10
  endloop
endfacet
facet normal 0 0 1
  outer loop
    vertex 106.5 -34.5 52.519685
    vertex 120.938701543674 -34.5 52.519685
    vertex 120.938701543674 -15.5 52.519685
  endloop
endfacet
facet normal .939441001977616 0 .342710670687817
  outer loop
    vertex 120.938701543674 -34.5 52.519685
    vertex 136.45 -34.5 10
    vertex 136.45 -15.5 10
  endloop
endfacet
facet normal 0 0 1
  outer loop
    vertex 136.45 -34.5 10
    vertex 162.5 -34.5 10
    vertex 162.5 -15.5 10
  endloop
endfacet
facet normal 0 0 1
  outer loop
    vertex 106.5 -34.5 52.519685
    vertex 120.938701543674 -15.5 52.519685
    vertex 106.5 -15.5 52.519685
  endloop
endfacet
facet normal .939441001977616 0 .342710670687817
  outer loop
    vertex 120.938701543674 -34.5 52.519685
    vertex 136.45 -15.5 10
    vertex 120.938701543674 -15.5 52.519685
  endloop
endfacet
facet normal 0 0 1
  outer loop
    vertex 136.45 -34.5 10
    vertex 162.5 -15.5 10
    vertex 136.45 -15.5 10
  endloop
endfacet
facet normal 0 0 -1
  outer loop
    vertex 106.5 -34.5 42.519685
    vertex 115.938701543674 -15.5 42.519685
    vertex 115.938701543674 -34.5 42.519685
  endloop
endfacet
facet normal -.939441001977616 0 -.342710670687817
  outer loop
    vertex 115.938701543674 -34.5 42.519685
    vertex 131.45 -15.5 0
    vertex 131.45 -34.5 0
  endloop
endfacet
facet normal 0 0 -1
  outer loop
    vertex 131.45 -34.5 0
    vertex 162.5 -15.5 0
    vertex 162.5 -34.5 0
  endloop
endfacet
facet normal 0 0 -1
  outer loop
    vertex 106.5 -34.5 42.519685
    vertex 106.5 -15.5 42.519685
    vertex 115.938701543674 -15.5 42.519685
  endloop
endfacet
facet normal -.939441001977616 0 -.342710670687817
  outer loop
    vertex 115.938701543674 -34.5 42.519685
    vertex 115.938701543674 -15.5 42.519685
    vertex 131.45 -15.5 0
  endloop
endfacet
facet normal 0 0 -1
  outer loop
    vertex 131.45 -34.5 0
    vertex 131.45 -15.5 0
    vertex 162.5 -15.5 0
  endloop
endfacet
facet normal 1 0 0
  outer loop
    vertex 162.5 15.5 10
    vertex 162.5 15.5 0
    vertex 162.5 34.5 0
  endloop
endfacet
facet normal 1 0 0
  outer loop
    vertex 162.5 15.5 10
    vertex 162.5 34.5 0
    vertex 162.5 34.5 10
  endloop
endfacet
facet normal -1 0 0
  outer loop
    vertex 106.5 34.5 52.519685
    vertex 106.5 34.5 42.519685
    vertex 106.5 15.5 42.519685
  endloop
endfacet
facet normal -1 0 0
  outer loop
    vertex 106.5 34.5 52.519685
    vertex 106.5 15.5 42.519685
    vertex 106.5 15.5 52.519685
  endloop
endfacet
facet normal 0 -1 0
  outer loop
    vertex 106.5 15.5 42.519685
    vertex 115.938701543674 15.5 42.519685
    vertex 120.938701543674 15.5 52.519685
  endloop
endfacet
facet normal 0 -1 0
  outer loop
    vertex 115.938701543674 15.5 42.519685
    vertex 131.45 15.5 0
    vertex 136.45 15.5 10
  endloop
endfacet
facet normal 0 -1 0
  outer loop
    vertex 131.45 15.5 0
    vertex 162.5 15.5 0
    vertex 162.5 15.5 10
  endloop
endfacet
facet normal 0 -1 0
  outer loop
    vertex 106.5 15.5 42.519685
    vertex 120.938701543674 15.5 52.519685
    vertex 106.5 15.5 52.519685
  endloop
endfacet
facet normal 0 -1 0
  outer loop
    vertex 115.938701543674 15.5 42.519685
    vertex 136.45 15.5 10
    vertex 120.938701543674 15.5 52.519685
  endloop
endfacet
facet normal 0 -1 0
  outer loop
    vertex 131.45 15.5 0
    vertex 162.5 15.5 10
    vertex 136.45 15.5 10
  endloop
endfacet
facet normal 0 1 0
  outer loop
    vertex 106.5 34.5 42.519685
    vertex 120.938701543674 34.5 52.519685
    vertex 115.938701543674 34.5 42.519685
  endloop
endfacet
facet normal 0 1 0
  outer loop
    vertex 115.938701543674 34.5 42.519685
    vertex 136.45 34.5 10
    vertex 131.45 34.5 0
  endloop
endfacet
facet normal 0 1 0
  outer loop
    vertex 131.45 34.5 0
    vertex 162.5 34.5 10
    vertex 162.5 34.5 0
  endloop
endfacet
facet normal 0 1 0
  outer loop
    vertex 106.5 34.5 42.519685
    vertex 106.5 34.5 52.519685
    vertex 120.938701543674 34.5 52.519685
  endloop
endfacet
facet normal 0 1 0
  outer loop
    vertex 115.938701543674 34.5 42.519685
    vertex 120.938701543674 34.5 52.519685
    vertex 136.45 34.5 10
  endloop
endfacet
facet normal 0 1 0
  outer loop
    vertex 131.45 34.5 0
    vertex 136.45 34.5 10
    vertex 162.5 34.5 10
  endloop
endfacet
facet normal 0 0 1
  outer loop
    vertex 106.5 15.5 52.519685
    vertex 120.938701543674 15.5 52.519685
    vertex 120.938701543674 34.5 52.519685
  endloop
endfacet
facet normal .939441001977616 0 .342710670687817
  outer loop
    vertex 120.938701543674 15.5 52.519685
    vertex 136.45 15.5 10
    vertex 136.45 34.5 10
  endloop
endfacet
facet normal 0 0 1
  outer loop
    vertex 136.45 15.5 10
    vertex 162.5 15.5 10
    vertex 162.5 34.5 10
  endloop
endfacet
facet normal 0 0 1
  outer loop
    vertex 106.5 15.5 52.519685
    vertex 120.938701543674 34.5 52.519685
    vertex 106.5 34.5 52.519685
  endloop
endfacet
facet normal .939441001977616 0 .342710670687817
  outer loop
    vertex 120.938701543674 15.5 52.519685
    vertex 136.45 34.5 10
    vertex 120.938701543674 34.5 52.519685
  endloop
endfacet
facet normal 0 0 1
  outer loop
    vertex 136.45 15.5 10
    vertex 162.5 34.5 10
    vertex 136.45 34.5 10
  endloop
endfacet
facet normal 0 0 -1
  outer loop
    vertex 106.5 15.5 42.519685
    vertex 115.938701543674 34.5 42.519685
    vertex 115.938701543674 15.5 42.519685
  endloop
endfacet
facet normal -.939441001977616 0 -.342710670687817
  outer loop
    vertex 115.938701543674 15.5 42.519685
    vertex 131.45 34.5 0
    vertex 131.45 15.5 0
  endloop
endfacet
facet normal 0 0 -1
  outer loop
    vertex 131.45 15.5 0
    vertex 162.5 34.5 0
    vertex 162.5 15.5 0
  endloop
endfacet
facet normal 0 0 -1
  outer loop
    vertex 106.5 15.5 42.519685
    vertex 106.5 34.5 42.519685
    vertex 115.938701543674 34.5 42.519685
  endloop
endfacet
facet normal -.939441001977616 0 -.342710670687817
  outer loop
    vertex 115.938701543674 15.5 42.519685
    vertex 115.938701543674 34.5 42.519685
    vertex 131.45 34.5 0
  endloop
endfacet
facet normal 0 0 -1
  outer loop
    vertex 131.45 15.5 0
    vertex 131.45 34.5 0
    vertex 162.5 34.5 0
  endloop
endfacet
facet normal 1 0 0
  outer loop
    vertex 162.5 65.5 10
    vertex 162.5 65.5 0
    vertex 162.5 84.5 0
  endloop
endfacet
facet normal 1 0 0
  outer loop
    vertex 162.5 65.5 10
    vertex 162.5 84.5 0
    vertex 162.5 84.5 10
  endloop
endfacet
facet normal -1 0 0
  outer loop
    vertex 106.5 84.5 52.519685
    vertex 106.5 84.5 42.519685
    vertex 106.5 65.5 42.519685
  endloop
endfacet
facet normal -1 0 0
  outer loop
    vertex 106.5 84.5 52.519685
    vertex 106.5 65.5 42.519685
    vertex 106.5 65.5 52.519685
  endloop
endfacet
facet normal 0 -1 0
  outer loop
    vertex 106.5 65.5 42.519685
    vertex 115.938701543674 65.5 42.519685
    vertex 120.938701543674 65.5 52.519685
  endloop
endfacet
facet normal 0 -1 0
  outer loop
    vertex 115.938701543674 65.5 42.519685
    vertex 131.45 65.5 0
    vertex 136.45 65.5 10
  endloop
endfacet
facet normal 0 -1 0
  outer loop
    vertex 131.45 65.5 0
    vertex 162.5 65.5 0
    vertex 162.5 65.5 10
  endloop
endfacet
facet normal 0 -1 0
  outer loop
    vertex 106.5 65.5 42.519685
    vertex 120.938701543674 65.5 52.519685
    vertex 106.5 65.5 52.519685
  endloop
endfacet
facet normal 0 -1 0
  outer loop
    vertex 115.938701543674 65.5 42.519685
    vertex 136.45 65.5 10
    vertex 120.938701543674 65.5 52.519685
  endloop
endfacet
facet normal 0 -1 0
  outer loop
    vertex 131.45 65.5 0
    vertex 162.5 65.5 10
    vertex 136.45 65.5 10
  endloop
endfacet
facet normal 0 1 0
  outer loop
    vertex 106.5 84.5 42.519685
    vertex 120.938701543674 84.5 52.519685
    vertex 115.938701543674 84.5 42.519685
  endloop
endfacet
facet normal 0 1 0
  outer loop
    vertex 115.938701543674 84.5 42.519685
    vertex 136.45 84.5 10
    vertex 131.45 84.5 0
  endloop
endfacet
facet normal 0 1 0
  outer loop
    vertex 131.45 84.5 0
    vertex 162.5 84.5 10
    vertex 162.5 84.5 0
  endloop
endfacet
facet normal 0 1 0
  outer loop
    vertex 106.5 84.5 42.519685
    vertex 106.5 84.5 52.519685
    vertex 120.938701543674 84.5 52.519685
  endloop
endfacet
facet normal 0 1 0
  outer loop
    vertex 115.938701543674 84.5 42.519685
    vertex 120.938701543674 84.5 52.519685
    vertex 136.45 84.5 10
  endloop
endfacet
facet normal 0 1 0
  outer loop
    vertex 131.45 84.5 0
    vertex 136.45 84.5 10
    vertex 162.5 84.5 10
  endloop
endfacet
facet normal 0 0 1
  outer loop
    vertex 106.5 65.5 52.519685
    vertex 120.938701543674 65.5 52.519685
    vertex 120.938701543674 84.5 52.519685
  endloop
endfacet
facet normal .939441001977616 0 .342710670687817
  outer loop
    vertex 120.938701543674 65.5 52.519685
    vertex 136.45 65.5 10
    vertex 136.45 84.5 10
  endloop
endfacet
facet normal 0 0 1
  outer loop
    vertex 136.45 65.5 10
    vertex 162.5 65.5 10
    vertex 162.5 84.5 10
  endloop
endfacet
facet normal 0 0 1
  outer loop
    vertex 106.5 65.5 52.519685
    vertex 120.938701543674 84.5 52.519685
    vertex 106.5 84.5 52.519685
  endloop
endfacet
facet normal .939441001977616 0 .342710670687817
  outer loop
    vertex 120.938701543674 65.5 52.519685
    vertex 136.45 84.5 10
    vertex 120.938701543674 84.5 52.519685
  endloop
endfacet
facet normal 0 0 1
  outer loop
    vertex 136.45 65.5 10
    vertex 162.5 84.5 10
    vertex 136.45 84.5 10
  endloop
endfacet
facet normal 0 0 -1
  outer loop
    vertex 106.5 65.5 42.519685
    vertex 115.938701543674 84.5 42.519685
    vertex 115.938701543674 65.5 42.519685
  endloop
endfacet
facet normal -.939441001977616 0 -.342710670687817
  outer loop
    vertex 115.938701543674 65.5 42.519685
    vertex 131.45 84.5 0
    vertex 131.45 65.5 0
  endloop
endfacet
facet normal 0 0 -1
  outer loop
    vertex 131.45 65.5 0
    vertex 162.5 84.5 0
    vertex 162.5 65.5 0
  endloop
endfacet
facet normal 0 0 -1
  outer loop
    vertex 106.5 65.5 42.519685
    vertex 106.5 84.5 42.519685
    vertex 115.938701543674 84.5 42.519685
  endloop
endfacet
facet normal -.939441001977616 0 -.342710670687817
  outer loop
    vertex 115.938701543674 65.5 42.519685
    vertex 115.938701543674 84.5 42.519685
    vertex 131.45 84.5 0
  endloop
endfacet
facet normal 0 0 -1
  outer loop
    vertex 131.45 65.5 0
    vertex 131.45 84.5 0
    vertex 162.5 84.5 0
  endloop
endfacet
endsolid 8S2-M
